# xmcd
#
# Track frame offsets:
#	150
#	26759
#	53342
#	75221
#	99591
#	119530
#	139174
#	158958
#	180776
#	206413
#	231503
#	264525
#	290510
#	318118
#
# Disc length: 4516 seconds
#
# Revision: 1
# Processed by: cddbd v1.5.2PL0 Copyright (c) Steve Scherf et al.
# Submitted via: audiograbber 1.83.01
#
DISCID=b411a20e
DTITLE=Armin Van Buuren - A State Of Trance 2010 [CD1) - On The Beach
DYEAR=2010
DGENRE=Trance
TTITLE0=Susana feat. Omnia and The Blizzard - Closer
TTITLE1=Luigi Lusini - Who We Are
TTITLE2=M6 - Days Of Wonder
TTITLE3=Mat Zo - Near The End
TTITLE4=Monogato - Sincere
TTITLE5=Ron Hagen and Al Exander - Last Minute
TTITLE6=The Thrillseekers - Savanna
TTITLE7=Orjan Nilsen - Lovers Lane
TTITLE8=Beat Service feat. Emma Lock - Cut And Run
TTITLE9=Tenishia feat. Aneym - Stranger To Myself (Tenishia's Burnout Mix)
TTITLE10=Andy Moor feat. Carrie Skipper - She Moves
TTITLE11=DJ Governor - Shades Of Grey
TTITLE12=Myon and Shane 54 feat. Labworks - Labworks - Ibiza Sunrise (Classic Dub
TTITLE12=)
TTITLE13=Andrew Bennett feat. Sir Adrian - Run Till U Shine (Cosmic Gate Remix)
EXTD=
EXTT0=
EXTT1=
EXTT2=
EXTT3=
EXTT4=
EXTT5=
EXTT6=
EXTT7=
EXTT8=
EXTT9=
EXTT10=
EXTT11=
EXTT12=
EXTT13=
PLAYORDER=
